<svg width="20" height="20" viewBox="0 0 20 20" fill="#baa694" xmlns="http://www.w3.org/2000/svg" data-v-69229d27="">
    <path d="M2.5 2.5V17.5H17.5V2.5H2.5ZM14.96 6.05263L14.1533 6.82494C14.0847 6.87643 14.0503 6.96224 14.0675 7.04806V12.7203C14.0503 12.8061 14.0847 12.8919 14.1533 12.9434L14.9428 13.7157V13.8873H10.9868V13.7157L11.8021 12.9262C11.8879 12.849 11.8879 12.8232 11.8879 12.7031V8.12071L9.62243 13.8616H9.3135L6.67906 8.12071V11.9737C6.6619 12.1281 6.71339 12.2912 6.82494 12.4113L7.88902 13.6985V13.8616H4.88558V13.6985L5.94108 12.4113C6.05263 12.2912 6.10412 12.1281 6.07838 11.9737V7.52002C6.09554 7.3913 6.04405 7.27117 5.94966 7.18535L5.0143 6.05263V5.88101H7.93192L10.1888 10.841L12.1711 5.88101H14.96V6.05263Z" fill="" data-v-69229d27=""></path>
</svg>