<svg width="20" height="20" viewBox="0 0 20 20" fill="#baa694" xmlns="http://www.w3.org/2000/svg" data-v-69229d27="">
    <path d="M9.99984 1.6665C5.39785 1.6665 1.6665 5.39785 1.6665 9.99095C1.6665 14.5929 5.39785 18.3332 9.99984 18.3332C14.6018 18.3332 18.3332 14.5929 18.3332 9.99095C18.3332 5.39785 14.6018 1.6665 9.99984 1.6665ZM14.1043 6.89927C14.051 7.67219 12.6207 13.4469 12.6207 13.4469C12.6207 13.4469 12.5318 13.7845 12.2209 13.7934C12.1143 13.7934 11.9721 13.7845 11.8122 13.6335C11.4835 13.358 10.7372 12.825 10.0354 12.3364C10.0087 12.363 9.98207 12.3897 9.94653 12.4163C9.78662 12.5585 9.54675 12.7628 9.28911 13.0116C9.19138 13.1004 9.08477 13.1981 8.97816 13.3047L8.96928 13.3136C8.90709 13.3758 8.85378 13.4202 8.80936 13.4558C8.46288 13.7401 8.42734 13.5002 8.42734 13.3758L8.61391 11.3413V11.3236L8.62279 11.3058C8.63168 11.2792 8.64945 11.2703 8.64945 11.2703C8.64945 11.2703 12.2831 8.03644 12.3808 7.68996C12.3897 7.67219 12.363 7.65442 12.3186 7.67219C12.0787 7.75215 7.89429 10.3996 7.43232 10.6928C7.40567 10.7106 7.32571 10.7017 7.32571 10.7017L5.29124 10.0354C5.29124 10.0354 5.05137 9.93765 5.13132 9.71554C5.14909 9.67112 5.17574 9.6267 5.27347 9.56451C5.72656 9.24469 13.6068 6.41064 13.6068 6.41064C13.6068 6.41064 13.8289 6.33957 13.9622 6.38399C14.0244 6.41064 14.0599 6.43729 14.0954 6.52613C14.1043 6.56167 14.1132 6.63274 14.1132 6.7127C14.1132 6.75712 14.1043 6.81043 14.1043 6.89927Z" fill="" data-v-69229d27=""></path>
</svg>