<svg width="20" height="20" viewBox="0 0 20 20" fill="#baa694" xmlns="http://www.w3.org/2000/svg" data-v-69229d27="">
    <path d="M6.90589 17.0832C13.1932 17.0832 16.6349 11.6374 16.6349 6.91828C16.6349 6.76727 16.6349 6.61626 16.6259 6.45581C17.2943 5.95559 17.8725 5.32323 18.3332 4.60593C17.7189 4.88908 17.0595 5.07784 16.3639 5.17222C17.0685 4.72863 17.6105 4.03021 17.8725 3.19021C17.213 3.60549 16.4813 3.89807 15.6954 4.05852C15.0721 3.35066 14.1868 2.9165 13.2022 2.9165C11.3142 2.9165 9.77852 4.52099 9.77852 6.49356C9.77852 6.77671 9.81465 7.04098 9.86885 7.30525C7.03236 7.16367 4.51203 5.72907 2.82278 3.56774C2.52468 4.10571 2.36208 4.71919 2.36208 5.37042C2.36208 6.60682 2.96732 7.70165 3.87969 8.34344C3.31962 8.32457 2.79568 8.16412 2.33498 7.89985C2.33498 7.90929 2.33498 7.92816 2.33498 7.94704C2.33498 9.67422 3.51836 11.1277 5.0721 11.4486C4.78304 11.5335 4.48493 11.5713 4.16876 11.5713C3.95196 11.5713 3.73516 11.5524 3.52739 11.5052C3.96099 12.9304 5.22567 13.9591 6.72522 13.9875C5.55088 14.9501 4.07843 15.5164 2.47951 15.5164C2.20851 15.5164 1.92847 15.507 1.6665 15.4692C3.17509 16.4886 4.97274 17.0832 6.90589 17.0832Z" fill="" data-v-69229d27=""></path>
</svg>