<?xml version="1.0" standalone="no"?>
<!DOCTYPE svg PUBLIC "-//W3C//DTD SVG 20010904//EN"
 "http://www.w3.org/TR/2001/REC-SVG-20010904/DTD/svg10.dtd">
<svg version="1.0" xmlns="http://www.w3.org/2000/svg"
 width="161.000000pt" height="161.000000pt" viewBox="0 0 161.000000 161.000000"
 preserveAspectRatio="xMidYMid meet">
<metadata>
Created by potrace 1.14, written by Peter Selinger 2001-2017
</metadata>
<g transform="translate(0.000000,161.000000) scale(0.100000,-0.100000)"
fill="#000000" stroke="none">
<path d="M785 1584 c-44 -23 -673 -652 -696 -696 -23 -44 -25 -121 -5 -169 15
-35 663 -688 703 -708 31 -16 149 -14 181 3 15 8 107 95 205 194 153 154 176
180 163 191 -13 11 -32 4 -113 -39 l-98 -51 -235 22 c-129 13 -236 24 -238 25
-2 1 4 17 14 35 16 33 16 33 -7 49 -55 35 -59 45 -59 136 0 75 -3 89 -25 118
-38 50 -92 174 -105 244 -14 67 -8 188 10 206 7 7 10 -1 10 -25 0 -53 42 -130
97 -179 52 -47 177 -119 188 -109 3 4 1 18 -5 33 -22 58 0 172 35 183 6 2 21
-17 34 -42 13 -25 45 -65 72 -90 45 -42 52 -45 101 -45 52 0 56 2 108 55 l54
55 -17 47 c-22 61 -21 108 2 159 22 49 39 62 47 37 18 -58 52 -116 86 -150
l39 -38 102 -3 102 -3 -265 266 c-146 146 -282 275 -302 286 -46 23 -140 25
-183 3z"/>
<path d="M1018 716 c-26 -17 -47 -34 -47 -38 -1 -12 67 -10 90 2 12 7 19 21
19 40 0 36 -3 36 -62 -4z"/>
</g>
</svg>
